<?xml version="1.0" encoding="utf-8"?>
<!-- Generator: Adobe Illustrator 28.0.0, SVG Export Plug-In . SVG Version: 6.00 Build 0)  -->
<svg version="1.1" id="Capa_1" xmlns="http://www.w3.org/2000/svg" xmlns:xlink="http://www.w3.org/1999/xlink" x="0px" y="0px"
	 viewBox="0 0 576 512" style="enable-background:new 0 0 576 512;" xml:space="preserve">
<style type="text/css">
	.st0{fill:#FFFFFF;}
</style>
<path class="st0" d="M575.8,255.5c0,18-15,32.1-32,32.1h-32l0.7,160.2c0,2.7-0.2,5.4-0.5,8.1V472c0,22.1-17.9,40-40,40h-16
	c-1.1,0-2.2,0-3.3-0.1c-1.4,0.1-2.8,0.1-4.2,0.1H416h-24c-22.1,0-40-17.9-40-40v-24v-64c0-17.7-14.3-32-32-32h-64
	c-17.7,0-32,14.3-32,32v64v24c0,22.1-17.9,40-40,40h-24h-31.9c-1.5,0-3-0.1-4.5-0.2c-1.2,0.1-2.4,0.2-3.6,0.2h-16
	c-22.1,0-40-17.9-40-40V360c0-0.9,0-1.9,0.1-2.8v-69.6H32c-18,0-32-14-32-32.1c0-9,3-17,10-24L266.4,8c7-7,15-8,22-8s15,2,21,7
	l255.4,224.5C572.8,238.5,576.8,246.5,575.8,255.5z"/>
</svg>
